<svg xmlns="http://www.w3.org/2000/svg" viewBox="0 0 128 128">
  <defs>
    <linearGradient id="bg" x1="0" y1="0" x2="1" y2="1">
      <stop offset="0" stop-color="#e7f7ff"/>
      <stop offset="1" stop-color="#eef2ff"/>
    </linearGradient>
  </defs>
  <circle cx="64" cy="64" r="60" fill="url(#bg)" stroke="#dbeafe" stroke-width="4"/>
  <g transform="translate(0,2)" fill="none" stroke="#0f172a" stroke-linecap="round" stroke-linejoin="round">
    <rect x="32" y="34" width="64" height="54" rx="18" fill="#ffffff" stroke="#cbd5e1" stroke-width="4"/>
    <path d="M46 34c2-10 10-16 18-16s16 6 18 16" stroke="#94a3b8" stroke-width="4"/>
    <path d="M24 64h8" stroke="#94a3b8" stroke-width="4"/>
    <path d="M96 64h8" stroke="#94a3b8" stroke-width="4"/>
    <circle cx="52" cy="60" r="8" fill="#0ea5e9" stroke="#0369a1" stroke-width="4"/>
    <circle cx="76" cy="60" r="8" fill="#0ea5e9" stroke="#0369a1" stroke-width="4"/>
    <path d="M52 78c6 6 18 6 24 0" stroke="#0f766e" stroke-width="5"/>
    <circle cx="44" cy="48" r="2" fill="#64748b" stroke="none"/>
    <circle cx="84" cy="48" r="2" fill="#64748b" stroke="none"/>
  </g>
  <circle cx="96" cy="92" r="14" fill="#dcfce7" stroke="#86efac" stroke-width="4"/>
  <path d="M90 92h12" stroke="#166534" stroke-width="5" stroke-linecap="round"/>
  <path d="M96 86v12" stroke="#166534" stroke-width="5" stroke-linecap="round"/>
</svg>
