<?xml version="1.0" encoding="UTF-8"?>
<svg xmlns="http://www.w3.org/2000/svg" width="1200" height="700" viewBox="0 0 1200 700" role="img" aria-label="AI Symptom Checking and Health Advice Chatbot diagram">
  <defs>
    <style>
      .title { font: 700 56px Arial, Helvetica, sans-serif; fill: #d01414; }
      .subtitle { font: 700 44px Arial, Helvetica, sans-serif; fill: #0b2a43; }
      .label { font: 700 22px Arial, Helvetica, sans-serif; fill: #0b2a43; letter-spacing: 0.3px; }
      .small { font: 400 18px Arial, Helvetica, sans-serif; fill: #0b2a43; opacity: 0.9; }
      .icon-stroke { stroke: #1b5b83; stroke-width: 6; fill: none; stroke-linecap: round; stroke-linejoin: round; }
      .icon-fill { fill: #1b5b83; }
      .panel { fill: #d9eefb; stroke: #b9ddf3; stroke-width: 3; rx: 18; }
      .arrow { stroke: #1b5b83; stroke-width: 6; fill: none; stroke-linecap: round; stroke-linejoin: round; }
    </style>
    <marker id="arrowhead" markerWidth="14" markerHeight="10" refX="12" refY="5" orient="auto">
      <path d="M0,0 L14,5 L0,10 Z" fill="#1b5b83"/>
    </marker>
  </defs>

  <text x="80" y="90" class="title">AI Symptom Checking &amp; Health Advice Chatbot</text>

  <rect x="80" y="140" width="1040" height="470" class="panel"/>
  <text x="600" y="210" text-anchor="middle" class="subtitle">AI-Powered Symptom Analysis</text>

  <g transform="translate(150,285)">
    <path class="icon-stroke" d="M30 20 h120 a26 26 0 0 1 26 26 v58 a26 26 0 0 1-26 26 h-58 l-36 28 v-28 h-26 a26 26 0 0 1-26-26 v-58 a26 26 0 0 1 26-26 z"/>
    <path class="icon-stroke" d="M55 60 h95"/>
    <path class="icon-stroke" d="M55 86 h75"/>
    <path class="icon-stroke" d="M55 112 h60"/>
    <text x="90" y="200" text-anchor="middle" class="label">USER SYMPTOMS</text>
  </g>

  <path class="arrow" d="M350 360 H430" marker-end="url(#arrowhead)"/>

  <g transform="translate(450,285)">
    <rect x="10" y="20" width="170" height="130" rx="16" class="icon-stroke"/>
    <path class="icon-stroke" d="M10 52 h170"/>
    <circle cx="32" cy="36" r="6" class="icon-fill"/>
    <circle cx="52" cy="36" r="6" class="icon-fill" opacity="0.75"/>
    <circle cx="72" cy="36" r="6" class="icon-fill" opacity="0.55"/>
    <circle cx="60" cy="95" r="16" class="icon-stroke"/>
    <path class="icon-stroke" d="M38 134 q22-22 44 0"/>
    <path class="icon-stroke" d="M95 92 h62"/>
    <path class="icon-stroke" d="M95 114 h46"/>
    <text x="95" y="200" text-anchor="middle" class="label">CHAT INTERFACE</text>
  </g>

  <path class="arrow" d="M650 360 H730" marker-end="url(#arrowhead)"/>

  <g transform="translate(750,280)">
    <rect x="35" y="30" width="120" height="120" rx="18" class="icon-stroke"/>
    <text x="95" y="108" text-anchor="middle" class="label" style="font-size:34px;">AI</text>
    <path class="icon-stroke" d="M20 54 h15"/>
    <path class="icon-stroke" d="M20 80 h15"/>
    <path class="icon-stroke" d="M20 106 h15"/>
    <path class="icon-stroke" d="M20 132 h15"/>
    <path class="icon-stroke" d="M155 54 h15"/>
    <path class="icon-stroke" d="M155 80 h15"/>
    <path class="icon-stroke" d="M155 106 h15"/>
    <path class="icon-stroke" d="M155 132 h15"/>
    <path class="icon-stroke" d="M60 15 v15"/>
    <path class="icon-stroke" d="M95 15 v15"/>
    <path class="icon-stroke" d="M130 15 v15"/>
    <path class="icon-stroke" d="M60 150 v15"/>
    <path class="icon-stroke" d="M95 150 v15"/>
    <path class="icon-stroke" d="M130 150 v15"/>
    <text x="95" y="205" text-anchor="middle" class="label">NLP + ML ANALYSIS</text>
  </g>

  <path class="arrow" d="M930 360 H1010" marker-end="url(#arrowhead)"/>

  <g transform="translate(1020,285)">
    <circle cx="90" cy="85" r="62" class="icon-stroke" opacity="0.25"/>
    <path class="icon-stroke" d="M90 23 a62 62 0 1 1 -54 94"/>
    <text x="90" y="92" text-anchor="middle" class="label" style="font-size:34px;">82%</text>
    <text x="90" y="118" text-anchor="middle" class="small">confidence</text>
    <text x="90" y="200" text-anchor="middle" class="label">PREDICTION</text>
    <text x="90" y="228" text-anchor="middle" class="label">+ ADVICE</text>
  </g>

  <g transform="translate(260,500)">
    <ellipse cx="85" cy="30" rx="70" ry="22" class="icon-stroke"/>
    <path class="icon-stroke" d="M15 30 v78 c0 12 31 22 70 22 s70-10 70-22 v-78"/>
    <ellipse cx="85" cy="108" rx="70" ry="22" class="icon-stroke"/>
    <text x="85" y="170" text-anchor="middle" class="label">CHAT HISTORY</text>
  </g>

  <g transform="translate(690,500)">
    <path class="icon-stroke" d="M35 20 h110 l30 30 v110 a18 18 0 0 1-18 18 h-122 a18 18 0 0 1-18-18 v-122 a18 18 0 0 1 18-18 z"/>
    <path class="icon-stroke" d="M145 20 v30 h30"/>
    <path class="icon-stroke" d="M55 78 h110"/>
    <path class="icon-stroke" d="M55 104 h98"/>
    <path class="icon-stroke" d="M55 130 h84"/>
    <text x="95" y="170" text-anchor="middle" class="label">HEALTH REPORT</text>
  </g>

  <path class="arrow" d="M1020 470 C980 520, 860 520, 820 520" marker-end="url(#arrowhead)"/>
  <path class="arrow" d="M1020 470 C980 540, 520 540, 410 520" marker-end="url(#arrowhead)"/>

  <text x="600" y="655" text-anchor="middle" class="small">
    Educational assistance only — not a medical diagnosis. Consult a qualified healthcare professional for medical decisions.
  </text>
</svg>
